# xmcd
#
# Track frame offsets:
#	150
#	11385
#	24230
#	34760
#	46830
#	57585
#	68270
#	80992
#	93340
#	104435
#	115810
#	126832
#	137302
#	146182
#	155062
#	165580
#	176142
#	187912
#	200730
#	211295
#	223400
#	234162
#	244862
#	257610
#	269827
#	280930
#	292370
#	303305
#	313592
#	322390
#	331262
#	341695
#
# Disc length: 4689 seconds
#
# Revision: 1
# Processed by: cddbd v1.5.1PL0 Copyright (c) Steve Scherf et al.
# Submitted via: dBpowerAMP V4.0
#
DISCID=ed124f20
DTITLE=Shadows - More Hits!
DYEAR=1962
DGENRE=Pop-Folk
TTITLE0=Foot Tapper - original mono
TTITLE1=Atlantis - original mono
TTITLE2=Shindig - original mono
TTITLE3=Theme for young lovers - original mono
TTITLE4=Geronimo - original mono
TTITLE5=Shazam - original mono
TTITLE6=The rise and fall of Flingel Blunt - original mono
TTITLE7=Genie with the light brown lamp - original mono
TTITLE8=Mary-Anne - original mono
TTITLE9=Stingray - original mono
TTITLE10=Rhythm and greens - original mono
TTITLE11=Don't make my baby blue - original mono
TTITLE12=The lute number - original mono
TTITLE13=The drum number - original mono
TTITLE14=The war lord - original mono
TTITLE15=A place in the sun - original mono
TTITLE16=Foot tapper
TTITLE17=Atlantis
TTITLE18=Shindig
TTITLE19=Theme for young lovers
TTITLE20=Geronimo
TTITLE21=Shazam
TTITLE22=The rise and fall of Flingel Bunt
TTITLE23=Genie with the light brown lamp
TTITLE24=Mary-Anne
TTITLE25=Stingray
TTITLE26=Rhythm and greens
TTITLE27=Don't make my baby blue
TTITLE28=The lute number
TTITLE29=The drum number
TTITLE30=The war lord
TTITLE31=A place in the sun
EXTD=
EXTT0=
EXTT1=
EXTT2=
EXTT3=
EXTT4=
EXTT5=
EXTT6=
EXTT7=
EXTT8=
EXTT9=
EXTT10=
EXTT11=
EXTT12=
EXTT13=
EXTT14=
EXTT15=
EXTT16=
EXTT17=
EXTT18=
EXTT19=
EXTT20=
EXTT21=
EXTT22=
EXTT23=
EXTT24=
EXTT25=
EXTT26=
EXTT27=
EXTT28=
EXTT29=
EXTT30=
EXTT31=
PLAYORDER=
